<svg id="visual" viewBox="0 0 960 540" width="960" height="540" xmlns="http://www.w3.org/2000/svg" xmlns:xlink="http://www.w3.org/1999/xlink" version="1.1"><rect x="0" y="0" width="960" height="540" fill="#cf1a1a"></rect><defs><linearGradient id="grad1_0" x1="43.8%" y1="0%" x2="100%" y2="100%"><stop offset="14.444444444444446%" stop-color="#920000" stop-opacity="1"></stop><stop offset="85.55555555555554%" stop-color="#920000" stop-opacity="1"></stop></linearGradient></defs><defs><linearGradient id="grad1_1" x1="43.8%" y1="0%" x2="100%" y2="100%"><stop offset="14.444444444444446%" stop-color="#920000" stop-opacity="1"></stop><stop offset="85.55555555555554%" stop-color="#a60808" stop-opacity="1"></stop></linearGradient></defs><defs><linearGradient id="grad1_2" x1="43.8%" y1="0%" x2="100%" y2="100%"><stop offset="14.444444444444446%" stop-color="#ba1211" stop-opacity="1"></stop><stop offset="85.55555555555554%" stop-color="#a60808" stop-opacity="1"></stop></linearGradient></defs><defs><linearGradient id="grad1_3" x1="43.8%" y1="0%" x2="100%" y2="100%"><stop offset="14.444444444444446%" stop-color="#ba1211" stop-opacity="1"></stop><stop offset="85.55555555555554%" stop-color="#cf1a1a" stop-opacity="1"></stop></linearGradient></defs><defs><linearGradient id="grad2_0" x1="0%" y1="0%" x2="56.3%" y2="100%"><stop offset="14.444444444444446%" stop-color="#920000" stop-opacity="1"></stop><stop offset="85.55555555555554%" stop-color="#920000" stop-opacity="1"></stop></linearGradient></defs><defs><linearGradient id="grad2_1" x1="0%" y1="0%" x2="56.3%" y2="100%"><stop offset="14.444444444444446%" stop-color="#a60808" stop-opacity="1"></stop><stop offset="85.55555555555554%" stop-color="#920000" stop-opacity="1"></stop></linearGradient></defs><defs><linearGradient id="grad2_2" x1="0%" y1="0%" x2="56.3%" y2="100%"><stop offset="14.444444444444446%" stop-color="#a60808" stop-opacity="1"></stop><stop offset="85.55555555555554%" stop-color="#ba1211" stop-opacity="1"></stop></linearGradient></defs><defs><linearGradient id="grad2_3" x1="0%" y1="0%" x2="56.3%" y2="100%"><stop offset="14.444444444444446%" stop-color="#cf1a1a" stop-opacity="1"></stop><stop offset="85.55555555555554%" stop-color="#ba1211" stop-opacity="1"></stop></linearGradient></defs><g transform="translate(960, 0)"><path d="M0 540C-67.9 515.1 -135.8 490.2 -188.3 454.5C-240.8 418.9 -277.9 372.5 -333 333C-388.2 293.6 -461.4 261 -498.9 206.6C-536.4 152.3 -538.2 76.1 -540 0L0 0Z" fill="#c51616"></path><path d="M0 405C-50.9 386.3 -101.8 367.6 -141.2 340.9C-180.6 314.2 -208.4 279.4 -249.8 249.8C-291.2 220.2 -346 195.8 -374.2 155C-402.3 114.2 -403.6 57.1 -405 0L0 0Z" fill="#b00d0d"></path><path d="M0 270C-33.9 257.5 -67.9 245.1 -94.1 227.3C-120.4 209.5 -138.9 186.3 -166.5 166.5C-194.1 146.8 -230.7 130.5 -249.4 103.3C-268.2 76.1 -269.1 38.1 -270 0L0 0Z" fill="#9c0404"></path><path d="M0 135C-17 128.8 -33.9 122.5 -47.1 113.6C-60.2 104.7 -69.5 93.1 -83.3 83.3C-97.1 73.4 -115.3 65.3 -124.7 51.7C-134.1 38.1 -134.5 19 -135 0L0 0Z" fill="#920000"></path></g><g transform="translate(0, 540)"><path d="M0 -540C66.8 -514 133.6 -488 188.3 -454.5C243 -421.1 285.7 -380.3 340.8 -340.8C396 -301.4 463.6 -263.2 498.9 -206.6C534.2 -150.1 537.1 -75 540 0L0 0Z" fill="#c51616"></path><path d="M0 -405C50.1 -385.5 100.2 -366 141.2 -340.9C182.3 -315.8 214.3 -285.2 255.6 -255.6C297 -226 347.7 -197.4 374.2 -155C400.6 -112.6 402.8 -56.3 405 0L0 0Z" fill="#b00d0d"></path><path d="M0 -270C33.4 -257 66.8 -244 94.1 -227.3C121.5 -210.6 142.8 -190.2 170.4 -170.4C198 -150.7 231.8 -131.6 249.4 -103.3C267.1 -75 268.5 -37.5 270 0L0 0Z" fill="#9c0404"></path><path d="M0 -135C16.7 -128.5 33.4 -122 47.1 -113.6C60.8 -105.3 71.4 -95.1 85.2 -85.2C99 -75.3 115.9 -65.8 124.7 -51.7C133.5 -37.5 134.3 -18.8 135 0L0 0Z" fill="#920000"></path></g></svg>