<svg id="visual" viewBox="0 0 960 540" width="960" height="540" xmlns="http://www.w3.org/2000/svg" xmlns:xlink="http://www.w3.org/1999/xlink" version="1.1"><g stroke-width="1" stroke-linejoin="bevel"><path d="M411 279L328 301L473 540Z" fill="#bc0000" stroke="#bc0000"></path><path d="M473 540L566 230L411 279Z" fill="#800002" stroke="#800002"></path><path d="M176 0L145 203L328 301Z" fill="#b40001" stroke="#b40001"></path><path d="M328 301L184 540L473 540Z" fill="#bc0000" stroke="#bc0000"></path><path d="M473 540L632 540L566 230Z" fill="#8f0003" stroke="#8f0003"></path><path d="M176 0L328 301L411 279Z" fill="#b40001" stroke="#b40001"></path><path d="M328 301L145 203L184 540Z" fill="#bc0000" stroke="#bc0000"></path><path d="M632 540L742 401L566 230Z" fill="#720000" stroke="#720000"></path><path d="M145 203L0 403L184 540Z" fill="#960003" stroke="#960003"></path><path d="M0 403L0 540L184 540Z" fill="#720000" stroke="#720000"></path><path d="M786 184L561 0L566 230Z" fill="#ad0002" stroke="#ad0002"></path><path d="M566 230L561 0L411 279Z" fill="#b40001" stroke="#b40001"></path><path d="M145 203L0 223L0 403Z" fill="#8f0003" stroke="#8f0003"></path><path d="M0 0L0 223L145 203Z" fill="#bc0000" stroke="#bc0000"></path><path d="M742 401L786 184L566 230Z" fill="#800002" stroke="#800002"></path><path d="M561 0L176 0L411 279Z" fill="#800002" stroke="#800002"></path><path d="M960 540L960 381L742 401Z" fill="#b40001" stroke="#b40001"></path><path d="M742 401L960 381L786 184Z" fill="#960003" stroke="#960003"></path><path d="M632 540L960 540L742 401Z" fill="#a50002" stroke="#a50002"></path><path d="M176 0L0 0L145 203Z" fill="#a50002" stroke="#a50002"></path><path d="M786 184L814 0L561 0Z" fill="#a50002" stroke="#a50002"></path><path d="M960 150L814 0L786 184Z" fill="#a50002" stroke="#a50002"></path><path d="M960 381L960 150L786 184Z" fill="#960003" stroke="#960003"></path><path d="M960 150L960 0L814 0Z" fill="#9e0003" stroke="#9e0003"></path></g></svg>