<svg id="visual" viewBox="0 0 960 540" width="960" height="540" xmlns="http://www.w3.org/2000/svg" xmlns:xlink="http://www.w3.org/1999/xlink" version="1.1"><g stroke-width="1" stroke-linejoin="bevel"><path d="M509 263L312 219L414 322Z" fill="#950003" stroke="#950003"></path><path d="M509 263L448 0L312 219Z" fill="#ac0001" stroke="#ac0001"></path><path d="M733 320L673 221L509 263Z" fill="#710001" stroke="#710001"></path><path d="M509 263L673 221L448 0Z" fill="#b30000" stroke="#b30000"></path><path d="M218 0L156 299L312 219Z" fill="#6a0000" stroke="#6a0000"></path><path d="M312 219L156 299L414 322Z" fill="#9d0002" stroke="#9d0002"></path><path d="M448 0L218 0L312 219Z" fill="#870003" stroke="#870003"></path><path d="M239 540L491 540L414 322Z" fill="#b30000" stroke="#b30000"></path><path d="M414 322L491 540L509 263Z" fill="#950003" stroke="#950003"></path><path d="M491 540L733 320L509 263Z" fill="#9d0002" stroke="#9d0002"></path><path d="M673 221L676 0L448 0Z" fill="#780002" stroke="#780002"></path><path d="M960 135L676 0L673 221Z" fill="#b30000" stroke="#b30000"></path><path d="M156 299L239 540L414 322Z" fill="#a40002" stroke="#a40002"></path><path d="M218 0L0 122L156 299Z" fill="#710001" stroke="#710001"></path><path d="M156 299L0 358L239 540Z" fill="#6a0000" stroke="#6a0000"></path><path d="M0 122L0 358L156 299Z" fill="#a40002" stroke="#a40002"></path><path d="M491 540L737 540L733 320Z" fill="#870003" stroke="#870003"></path><path d="M218 0L0 0L0 122Z" fill="#8e0003" stroke="#8e0003"></path><path d="M0 358L0 540L239 540Z" fill="#870003" stroke="#870003"></path><path d="M960 373L960 135L733 320Z" fill="#ac0001" stroke="#ac0001"></path><path d="M733 320L960 135L673 221Z" fill="#9d0002" stroke="#9d0002"></path><path d="M737 540L960 373L733 320Z" fill="#ac0001" stroke="#ac0001"></path><path d="M960 135L960 0L676 0Z" fill="#ac0001" stroke="#ac0001"></path><path d="M737 540L960 540L960 373Z" fill="#950003" stroke="#950003"></path></g></svg>